nColumns=19
nRows=88
DataType=double
version=3
OpenSimVersion=4.1
endheader
time	ground_force_calcn_r_vx	ground_force_calcn_r_vy	ground_force_calcn_r_vz	ground_force_calcn_r_px	ground_force_calcn_r_py	ground_force_calcn_r_pz	ground_force_calcn_r_mx	ground_force_calcn_r_my	ground_force_calcn_r_mz	ground_force_calcn_l_vx	ground_force_calcn_l_vy	ground_force_calcn_l_vz	ground_force_calcn_l_px	ground_force_calcn_l_py	ground_force_calcn_l_pz	ground_force_calcn_l_mx	ground_force_calcn_l_my	ground_force_calcn_l_mz
0	-5.92757	105.896	7.1046	0.0923169	0	-0.254888	-0.0107742	0.192482	0.0129136	0	0	0	0	0	0	0	0	0
0.01	-10.5795	139.921	7.67954	0.0963361	0	-0.254067	-0.0112776	0.149154	0.00818631	0	0	0	0	0	0	0	0	0
0.02	-16.4061	177.998	7.98846	0.100525	0	-0.253177	-0.0105119	0.114049	0.00511847	0	0	0	0	0	0	0	0	0
0.03	-23.4082	219.11	7.90224	0.104449	0	-0.252308	-0.00975188	0.0912814	0.00329208	0	0	0	0	0	0	0	0	0
0.04	-31.3356	262.102	7.30167	0.108264	0	-0.251431	-0.0102591	0.0858109	0.00239053	0	0	0	0	0	0	0	0	0
0.05	-39.807	305.819	6.09792	0.112048	0	-0.250523	-0.0133462	0.102533	0.00204447	0	0	0	0	0	0	0	0	0
0.06	-48.4169	349.081	4.26592	0.115833	0	-0.249581	-0.0201635	0.145377	0.00177657	0	0	0	0	0	0	0	0	0
0.07	-56.7558	390.741	1.857	0.119625	0	-0.248614	-0.0318772	0.219462	0.001043	0	0	0	0	0	0	0	0	0
0.08	-64.4483	429.74	-0.999776	0.123414	0	-0.247637	-0.0498458	0.332371	-0.000773249	0	0	0	0	0	0	0	0	0
0.09	-71.1641	465.173	-4.11696	0.127188	0	-0.24667	-0.075125	0.491064	-0.00434611	0	0	0	0	0	0	0	0	0
0.1	-76.6572	496.406	-7.31153	0.130942	0	-0.245721	-0.107569	0.696579	-0.0102599	0	0	0	0	0	0	0	0	0
0.11	-80.814	523.187	-10.4458	0.134683	0	-0.244791	-0.145626	0.942779	-0.0188233	0	0	0	0	0	0	0	0	0
0.12	-83.6362	545.589	-13.4227	0.13842	0	-0.243875	-0.18692	1.21935	-0.0299987	0	0	0	0	0	0	0	0	0
0.13	-85.1942	563.892	-16.177	0.14216	0	-0.242972	-0.22871	1.51381	-0.0434283	0	0	0	0	0	0	0	0	0
0.14	-85.5912	578.473	-18.6718	0.145905	0	-0.242072	-0.268124	1.81213	-0.0584915	0	0	0	0	0	0	0	0	0
0.15	-84.9502	589.743	-20.8875	0.149649	0	-0.241174	-0.30249	2.09995	-0.0743761	0	0	0	0	0	0	0	0	0
0.16	-83.4152	598.115	-22.8103	0.153389	0	-0.240271	-0.329638	2.36362	-0.0901414	0	0	0	0	0	0	0	0	0
0.17	-81.1388	603.982	-24.4294	0.157119	0	-0.239363	-0.34804	2.59074	-0.104788	0	0	0	0	0	0	0	0	0
0.18	-78.2724	607.705	-25.7323	0.160838	0	-0.23845	-0.356904	2.77099	-0.117333	0	0	0	0	0	0	0	0	0
0.19	-74.9578	609.608	-26.7009	0.164545	0	-0.237537	-0.356148	2.89644	-0.126864	0	0	0	0	0	0	0	0	0
0.2	-71.3209	609.988	-27.3135	0.16824	0	-0.236628	-0.346261	2.96147	-0.132606	0	0	0	0	0	0	0	0	0
0.21	-67.4674	609.109	-27.5537	0.171925	0	-0.235733	-0.328164	2.96273	-0.134022	0	0	0	0	0	0	0	0	0
0.22	-63.4837	607.211	-27.4235	0.175599	0	-0.234859	-0.303102	2.89912	-0.130933	0	0	0	0	0	0	0	0	0
0.23	-59.4411	604.515	-26.953	0.179264	0	-0.234011	-0.27258	2.77213	-0.123598	0	0	0	0	0	0	0	0	0
0.24	-55.401	601.226	-26.2036	0.182918	0	-0.233192	-0.23831	2.58621	-0.112716	0	0	0	0	0	0	0	0	0
0.25	-51.4182	597.54	-25.2607	0.186562	0	-0.232404	-0.202116	2.34883	-0.0992955	0	0	0	0	0	0	0	0	0
0.26	-47.5407	593.642	-24.2188	0.190193	0	-0.231648	-0.165772	2.07	-0.08445	0	0	0	0	0	0	0	0	0
0.27	-43.8065	589.704	-23.1659	0.193803	0	-0.230921	-0.130817	1.76101	-0.0691792	0	0	0	0	0	0	0	0	0
0.28	-40.2394	585.886	-22.1703	0.197388	0	-0.230225	-0.0984158	1.43293	-0.0542232	0	0	0	0	0	0	0	0	0
0.29	-36.8476	582.322	-21.2768	0.200935	0	-0.229563	-0.0693062	1.09528	-0.0400193	0	0	0	0	0	0	0	0	0
0.3	-33.6227	579.119	-20.5077	0.204438	0	-0.228937	-0.0438417	0.755132	-0.0267407	0	0	0	0	0	0	0	0	0
0.31	-30.5387	576.35	-19.8688	0.207886	0	-0.228348	-0.0221	0.417087	-0.0143784	0	0	0	0	0	0	0	0	0
0.32	-27.5528	574.067	-19.3578	0.211267	0	-0.227799	-0.00401702	0.083695	-0.00282224	0	0	0	0	0	0	0	0	0
0.33	-24.6084	572.304	-18.9717	0.214571	0	-0.227294	0.0104871	-0.243892	0.00808493	0	0	0	0	0	0	0	0	0
0.34	-21.6404	571.099	-18.7092	0.217786	0	-0.226832	0.0214193	-0.565264	0.0185181	0	0	0	0	0	0	0	0	0
0.35	-18.5817	570.5	-18.5716	0.220902	0	-0.226417	0.0286727	-0.880317	0.0286571	0	0	0	0	0	0	0	0	0
0.36	-15.3678	570.58	-18.5608	0.223911	0	-0.226049	0.0320251	-1.18904	0.0386791	0	0	0	0	0	0	0	0	0
0.37	-11.9416	571.431	-18.6794	0.226804	0	-0.225731	0.0311646	-1.4913	0.0487486	0	0	0	0	0	0	0	0	0
0.38	-8.25483	573.162	-18.9296	0.229575	0	-0.225463	0.0257296	-1.78649	0.059002	0	0	0	0	0	0	0	0	0
0.39	-4.26679	575.878	-19.3137	0.232225	0	-0.225247	0.0153621	-2.07339	0.069537	0	0	0	0	0	0	0	0	0
0.4	0.0576416	579.657	-19.8319	0.234754	0	-0.225084	-0.000233692	-2.35006	0.0804029	0	0	0	0	0	0	0	0	0
0.41	4.74975	584.527	-20.4816	0.237168	0	-0.224969	-0.0212388	-2.61374	0.0915845	0	0	0	0	0	0	0	0	0
0.42	9.83934	590.45	-21.2556	0.239478	0	-0.224899	-0.0476744	-2.8609	0.102989	0	0	0	0	0	0	0	0	0
0.43	15.3555	597.323	-22.1405	0.241693	0	-0.224868	-0.0793645	-3.08725	0.114432	0	0	0	0	0	0	0	0	0
0.44	21.3236	604.977	-23.1145	0.243825	0	-0.224869	-0.115889	-3.28791	0.125622	0	0	0	0	0	0	0	0	0
0.45	27.7597	613.187	-24.1465	0.245882	0	-0.224896	-0.156534	-3.4577	0.13616	0	0	0	0	0	0	0	0	0
0.46	34.6638	621.671	-25.1951	0.247877	0	-0.224945	-0.200267	-3.59164	0.145562	0	0	0	0	0	0	0	0	0
0.47	42.0146	630.094	-26.2083	0.249818	0	-0.225011	-0.245742	-3.6854	0.153291	0	0	0	0	0	0	0	0	0
0.48	49.7649	638.078	-27.1235	0.25171	0	-0.225092	-0.291353	-3.73568	0.158797	0	0	0	0	0	0	0	0	0
0.49	57.8372	645.202	-27.8694	0.253565	0	-0.225185	-0.335301	-3.74044	0.161568	0	0	0	0	0	0	0	0	0
0.5	66.1233	651.007	-28.3707	0.255387	0	-0.225287	-0.375709	-3.69899	0.161201	0	0	0	0	0	0	0	0	0
0.51	74.4868	655.005	-28.5552	0.257183	0	-0.225397	-0.410728	-3.61177	0.157456	0	0	0	0	0	0	0	0	0
0.52	82.765	656.69	-28.3603	0.258961	0	-0.22551	-0.438647	-3.4804	0.150307	-0.966974	24.1035	-4.24781	0.718677	0	-0.284922	-0.0129873	0.323732	-0.0570518
0.53	90.7714	655.55	-27.739	0.260728	0	-0.225623	-0.457998	-3.30766	0.13996	-3.30426	42.538	-4.72316	0.750349	0	-0.300277	-0.030794	0.396433	-0.0440175
0.54	98.2975	651.086	-26.6642	0.262489	0	-0.225733	-0.467637	-3.09745	0.126851	-6.50898	65.3665	-5.20383	0.766343	0	-0.307161	-0.0421718	0.423511	-0.0337157
0.55	105.116	642.83	-25.1337	0.264253	0	-0.225833	-0.466803	-2.85471	0.111615	-10.7099	92.741	-5.65565	0.776364	0	-0.310915	-0.0502371	0.435023	-0.0265291
0.56	110.985	630.367	-23.1721	0.266029	0	-0.22592	-0.455193	-2.58538	0.0950378	-16.0153	124.535	-6.03182	0.783532	0	-0.313204	-0.0567581	0.441354	-0.0213768
0.57	115.661	613.362	-20.8303	0.267824	0	-0.225989	-0.433032	-2.29642	0.0779885	-22.4964	160.238	-6.27102	0.789191	0	-0.314705	-0.0628306	0.447531	-0.0175144
0.58	118.907	591.593	-18.185	0.269652	0	-0.226035	-0.401097	-1.99557	0.061342	-30.1471	198.901	-6.28788	0.794027	0	-0.315745	-0.0692547	0.456921	-0.0144447
0.59	120.513	564.989	-15.3339	0.271524	0	-0.226054	-0.360743	-1.69123	0.0459005	-38.7795	239.399	-5.95333	0.798418	0	-0.316511	-0.0764052	0.471676	-0.0117295
0.6	120.315	533.667	-12.3887	0.273454	0	-0.226043	-0.313868	-1.39218	0.0323185	-48.0757	280.667	-5.12394	0.802562	0	-0.317114	-0.0843585	0.492486	-0.00899098
0.61	118.212	497.956	-9.46698	0.275455	0	-0.225996	-0.262725	-1.1067	0.0210403	-57.6807	321.729	-3.69285	0.806554	0	-0.317619	-0.093092	0.519244	-0.00595996
0.62	114.186	458.403	-6.68153	0.277544	0	-0.225906	-0.209731	-0.841971	0.0122723	-67.2142	361.754	-1.61516	0.810427	0	-0.318058	-0.102139	0.549723	-0.0024544
0.63	108.314	415.764	-4.12741	0.279736	0	-0.22577	-0.157347	-0.603978	0.00599587	-76.2929	400.066	1.07244	0.814172	0	-0.318442	-0.11029	0.578341	0.00155034
0.64	100.773	370.991	-1.87504	0.282054	0	-0.225583	-0.107954	-0.397426	0.00200865	-84.5368	436.098	4.25188	0.81776	0	-0.318769	-0.115809	0.597422	0.00582475
0.65	91.8424	325.175	0.0300262	0.284519	0	-0.225338	-0.0635932	-0.225157	-2.07907e-05	-91.5884	469.362	7.75097	0.821149	0	-0.319035	-0.117231	0.600773	0.00992108
0.66	81.8873	279.485	1.56424	0.287167	0	-0.225034	-0.0256968	-0.0877042	-0.00049087	-97.1665	499.52	11.3738	0.82431	0	-0.319233	-0.113943	0.585763	0.0133375
0.67	71.3284	235.069	2.72256	0.290042	0	-0.22466	0.00500574	0.0164969	0.000191066	-101.102	526.422	14.9258	0.827232	0	-0.319358	-0.10617	0.55281	0.015674
0.68	60.5985	192.982	3.51623	0.293221	0	-0.224203	0.0284819	0.0907032	0.00165266	-103.324	550.042	18.2331	0.829917	0	-0.319407	-0.0947297	0.504288	0.0167164
0.69	50.1014	154.109	3.97299	0.296842	0	-0.223633	0.0451992	0.13903	0.00358424	-103.849	570.4	21.1598	0.832383	0	-0.319379	-0.0808502	0.444076	0.0164736
0.7	40.1841	119.128	4.13753	0.301148	0	-0.222895	0.0558679	0.165624	0.00575241	-102.768	587.523	23.6216	0.834666	0	-0.319278	-0.0659822	0.377218	0.0151662
0.71	31.1246	88.4728	4.06727	0.306594	0	-0.221888	0.0612206	0.174022	0.00800013	-100.248	601.427	25.5869	0.83681	0	-0.319112	-0.0515124	0.309044	0.0131479
0.72	23.1229	62.3329	3.82328	0.314115	0	-0.220407	0.0617762	0.166531	0.0102144	-96.5152	612.138	27.0679	0.838876	0	-0.318888	-0.0385347	0.244402	0.0108072
0.73	16.2932	40.6749	3.46424	0.32591	0	-0.217992	0.0573239	0.143106	0.0121881	-91.8422	619.72	28.1055	0.840934	0	-0.318615	-0.0277365	0.187157	0.00848792
0.74	10.6551	23.2818	3.04189	0.34869	0	-0.213406	0.0444505	0.0971258	0.01269	-86.5152	624.307	28.7506	0.843051	0	-0.3183	-0.0193838	0.139876	0.00644158
0.75	0	0	0	0	0	0	0	0	0	-80.8086	626.112	29.0496	0.845293	0	-0.317944	-0.0134173	0.103959	0.00482334
0.76	0	0	0	0	0	0	0	0	0	-74.9612	625.423	29.0362	0.847714	0	-0.317548	-0.00960496	0.0801371	0.00372048
0.77	0	0	0	0	0	0	0	0	0	-69.1615	622.586	28.7286	0.850359	0	-0.31711	-0.00768689	0.0691967	0.00319302
0.78	0	0	0	0	0	0	0	0	0	-63.5448	617.98	28.1372	0.853257	0	-0.316625	-0.00747343	0.0726799	0.00330919
0.79	0	0	0	0	0	0	0	0	0	-58.1984	611.994	27.2768	0.856424	0	-0.316093	-0.00886975	0.0932712	0.00415714
0.8	0	0	0	0	0	0	0	0	0	-53.1711	605.015	26.1777	0.859863	0	-0.315518	-0.0118247	0.134549	0.00582164
0.81	0	0	0	0	0	0	0	0	0	-48.484	597.422	24.8903	0.863568	0	-0.314903	-0.0162463	0.200187	0.00834038
0.82	0	0	0	0	0	0	0	0	0	-44.1401	589.575	23.4813	0.867522	0	-0.314257	-0.0219358	0.292994	0.0116692
0.83	0	0	0	0	0	0	0	0	0	-40.131	581.822	22.0234	0.871701	0	-0.313591	-0.0285631	0.414109	0.0156751
0.84	0	0	0	0	0	0	0	0	0	-36.4385	574.478	20.5882	0.876066	0	-0.312915	-0.0356908	0.562691	0.0201658
0.85	0	0	0	0	0	0	0	0	0	-33.0355	567.819	19.2382	0.880578	0	-0.312243	-0.0428315	0.736194	0.0249429
0.86	0	0	0	0	0	0	0	0	0	-29.888	562.066	18.0219	0.885184	0	-0.311585	-0.0495013	0.93091	0.0298484
0.87	0	0	0	0	0	0	0	0	0	-26.9544	557.383	16.9732	0.889832	0	-0.310947	-0.0552506	1.14252	0.0347914
